<?xml version="1.0" encoding="utf-8"?>
<!-- Generator: Adobe Illustrator 28.3.0, SVG Export Plug-In . SVG Version: 6.00 Build 0)  -->
<svg version="1.1" id="Layer_1" xmlns="http://www.w3.org/2000/svg" xmlns:xlink="http://www.w3.org/1999/xlink" x="0px" y="0px"
	 width="32px" height="32px" viewBox="0 0 32 32" style="enable-background:new 0 0 32 32;" xml:space="preserve">
<g>
	<g>
		<path style="fill:#0054F2;" d="M16,8V0C7.2,0,0,7.2,0,16h8C8,11.6,11.6,8,16,8z"/>
	</g>
	<g>
		<path style="fill:#0054F2;" d="M24,16L24,16c0,4.4-3.6,8-8,8l0,0v8l0,0c8.8,0,16-7.2,16-16l0,0H24z"/>
	</g>
	<g>
		<path style="fill:#0054F2;" d="M8,16L8,16c0,4.4,3.6,8,8,8v-8H8z"/>
	</g>
	<g>
		<path style="fill:#0054F2;" d="M16,8L16,8v8h8C24,11.6,20.4,8,16,8z"/>
	</g>
</g>
</svg>
