<?xml version="1.0" encoding="utf-8"?>
<!-- Generator: Adobe Illustrator 28.3.0, SVG Export Plug-In . SVG Version: 6.00 Build 0)  -->
<svg version="1.1" id="Layer_1" xmlns="http://www.w3.org/2000/svg" xmlns:xlink="http://www.w3.org/1999/xlink" x="0px" y="0px"
	 width="1042px" height="296px" viewBox="0 0 1042 296" enable-background="new 0 0 1042 296" xml:space="preserve">
<g id="Outline_Icons_14_">
	<g>
		<path fill="none" stroke="#000000" stroke-width="20" stroke-linecap="round" stroke-linejoin="round" stroke-miterlimit="10" d="
			M146.36,119.16c0,0-20.45-47.73-61.36-47.73s-75,33.59-75,75c0,41.4,33.57,75,75,75c68.18,0,95.45-150,163.64-150
			c40.91,0,75,33.59,75,75c0,41.4-34.09,75-75,75s-61.36-34.09-61.36-34.09"/>
		
			<polyline fill="none" stroke="#000000" stroke-width="20" stroke-linecap="round" stroke-linejoin="round" stroke-miterlimit="10" points="
			98.98,110.2 146.36,119.16 155.28,71.78 		"/>
	</g>
</g>
<g id="Outline_Icons_12_">
	<g>
		
			<polyline fill="none" stroke="#000000" stroke-width="20" stroke-linecap="round" stroke-linejoin="round" stroke-miterlimit="10" points="
			659.75,173.58 694.04,139.66 660.09,105.41 		"/>
	</g>
</g>
<g id="Outline_Icons_10_">
	<g>
		
			<polyline fill="none" stroke="#000000" stroke-width="20" stroke-linecap="round" stroke-linejoin="round" stroke-miterlimit="10" points="
			421.01,105.41 386.73,139.33 420.67,173.58 		"/>
	</g>
</g>
<g id="Outline_Icons_8_">
	<g>
		<g>
			
				<path fill="none" stroke="#000000" stroke-width="20" stroke-linecap="round" stroke-linejoin="round" stroke-miterlimit="10" d="
				M964.17,284.31c0,0,65.59-47.71,65.59-83.04c0-40.79-53.67-53.67-65.59-4.08c-11.93-49.59-65.59-36.71-65.59,4.08
				C898.57,236.6,964.17,284.31,964.17,284.31z"/>
		</g>
		<g>
			<g>
				
					<ellipse fill="none" stroke="#000000" stroke-width="20" stroke-linecap="round" stroke-linejoin="round" stroke-miterlimit="10" cx="868.76" cy="57.71" rx="113.3" ry="47.71"/>
				
					<path fill="none" stroke="#000000" stroke-width="20" stroke-linecap="round" stroke-linejoin="round" stroke-miterlimit="10" d="
					M868.76,153.12c-62.57,0-113.3-21.35-113.3-47.71"/>
				
					<path fill="none" stroke="#000000" stroke-width="20" stroke-linecap="round" stroke-linejoin="round" stroke-miterlimit="10" d="
					M850.87,206.18c-54.06-3.61-95.41-23.32-95.41-47.1"/>
				
					<path fill="none" stroke="#000000" stroke-width="20" stroke-linecap="round" stroke-linejoin="round" stroke-miterlimit="10" d="
					M856.83,260.2c-56.96-2.52-101.37-22.8-101.37-47.45V57.71"/>
			</g>
			
				<line fill="none" stroke="#000000" stroke-width="20" stroke-linecap="round" stroke-linejoin="round" stroke-miterlimit="10" x1="982.06" y1="57.71" x2="982.06" y2="111.37"/>
		</g>
	</g>
</g>
<g>
	<circle fill="#4E9041" cx="638.65" cy="139.49" r="10.68"/>
	<g>
		<circle fill="#4E9041" cx="613.85" cy="125.17" r="10.68"/>
		<circle fill="#4E9041" cx="613.85" cy="153.82" r="10.68"/>
	</g>
	<circle fill="#4E9041" cx="589.04" cy="139.49" r="10.68"/>
	<g>
		<circle fill="#4E9041" cx="564.24" cy="125.17" r="10.68"/>
		<circle fill="#4E9041" cx="564.24" cy="153.82" r="10.68"/>
	</g>
	<circle fill="#4E9041" cx="539.66" cy="139.49" r="10.68"/>
	<g>
		<circle fill="#4E9041" cx="514.86" cy="125.17" r="10.68"/>
		<circle fill="#4E9041" cx="514.86" cy="153.82" r="10.68"/>
	</g>
	<circle fill="#4E9041" cx="490.05" cy="139.49" r="10.68"/>
	<circle fill="#4E9041" cx="440.44" cy="139.49" r="10.68"/>
	<g>
		<circle fill="#4E9041" cx="465.25" cy="125.17" r="10.68"/>
		<circle fill="#4E9041" cx="465.25" cy="153.82" r="10.68"/>
	</g>
</g>
</svg>
